<svg width="123" height="128" viewBox="0 0 123 128" fill="none" xmlns="http://www.w3.org/2000/svg">
<path d="M99.1459 36C98.7939 36 98.5059 35.888 98.2819 35.664C98.0579 35.44 97.9459 35.152 97.9459 34.8V3.12004C97.9459 2.76804 98.0579 2.48004 98.2819 2.25605C98.5059 2.03204 98.7939 1.92004 99.1459 1.92004H104.33C104.65 1.92004 104.922 2.03204 105.146 2.25605C105.37 2.48004 105.482 2.76804 105.482 3.12004V13.92C106.346 12.896 107.402 12.08 108.65 11.472C109.898 10.864 111.402 10.56 113.162 10.56C115.05 10.56 116.714 10.992 118.154 11.856C119.626 12.688 120.778 13.92 121.61 15.552C122.442 17.152 122.858 19.104 122.858 21.408V34.8C122.858 35.152 122.746 35.44 122.522 35.664C122.298 35.888 122.01 36 121.658 36H116.426C116.106 36 115.834 35.888 115.61 35.664C115.386 35.44 115.274 35.152 115.274 34.8V21.696C115.274 20 114.858 18.688 114.026 17.76C113.194 16.8 112.01 16.32 110.474 16.32C108.97 16.32 107.754 16.8 106.826 17.76C105.93 18.688 105.482 20 105.482 21.696V34.8C105.482 35.152 105.37 35.44 105.146 35.664C104.922 35.888 104.65 36 104.33 36H99.1459Z" fill="#46EBBD"/>
<path d="M81.1901 36.4799C78.8541 36.4799 76.7901 36.0479 74.9981 35.1839C73.2381 34.3199 71.8461 33.0719 70.8221 31.4399C69.7981 29.7759 69.2381 27.7919 69.1421 25.4879C69.1101 24.9759 69.0941 24.3359 69.0941 23.5679C69.0941 22.7679 69.1101 22.1119 69.1421 21.5999C69.2381 19.2639 69.7821 17.2799 70.7741 15.6479C71.7981 13.9839 73.2061 12.7199 74.9981 11.8559C76.7901 10.9919 78.8541 10.5599 81.1901 10.5599C83.3341 10.5599 85.1581 10.8639 86.6621 11.4719C88.1661 12.0479 89.3981 12.7839 90.3581 13.6799C91.3181 14.5759 92.0221 15.5199 92.4701 16.5119C92.9501 17.4719 93.2061 18.3199 93.2381 19.0559C93.2701 19.3759 93.1581 19.6639 92.9021 19.9199C92.6781 20.1439 92.4061 20.2559 92.0861 20.2559H86.9501C86.6301 20.2559 86.3741 20.1759 86.1821 20.0159C86.0221 19.8239 85.8621 19.5679 85.7021 19.2479C85.2541 18.1279 84.6781 17.3279 83.9741 16.8479C83.2701 16.3679 82.3901 16.1279 81.3341 16.1279C79.8941 16.1279 78.7581 16.5919 77.9261 17.5199C77.0941 18.4479 76.6461 19.8879 76.5821 21.8399C76.5501 23.0879 76.5501 24.2239 76.5821 25.2479C76.6781 27.2319 77.1261 28.6719 77.9261 29.5679C78.7581 30.4639 79.8941 30.9119 81.3341 30.9119C82.4541 30.9119 83.3501 30.6719 84.0221 30.1919C84.6941 29.7119 85.2541 28.9119 85.7021 27.7919C85.8301 27.4719 85.9901 27.2319 86.1821 27.0719C86.3741 26.8799 86.6301 26.7839 86.9501 26.7839H92.0861C92.4061 26.7839 92.6781 26.9119 92.9021 27.1679C93.1581 27.3919 93.2701 27.6639 93.2381 27.9839C93.2061 28.5279 93.0461 29.1679 92.7581 29.9039C92.5021 30.6399 92.0701 31.3919 91.4621 32.1599C90.8861 32.9279 90.1341 33.6479 89.2061 34.3199C88.2781 34.9599 87.1421 35.4879 85.7981 35.9039C84.4861 36.2879 82.9501 36.4799 81.1901 36.4799Z" fill="#46EBBD"/>
<path d="M60.5865 36C58.6025 36 56.9065 35.68 55.4985 35.04C54.0905 34.368 53.0185 33.344 52.2825 31.968C51.5785 30.592 51.2265 28.864 51.2265 26.784V16.704H47.4825C47.1305 16.704 46.8425 16.592 46.6185 16.368C46.3945 16.144 46.2825 15.856 46.2825 15.504V12.24C46.2825 11.888 46.3945 11.6 46.6185 11.376C46.8425 11.152 47.1305 11.04 47.4825 11.04H51.2265V3.12004C51.2265 2.76804 51.3385 2.48004 51.5625 2.25605C51.8185 2.03204 52.1065 1.92004 52.4265 1.92004H57.1305C57.4825 1.92004 57.7705 2.03204 57.9945 2.25605C58.2185 2.48004 58.3305 2.76804 58.3305 3.12004V11.04H64.3305C64.6505 11.04 64.9225 11.152 65.1465 11.376C65.3705 11.6 65.4825 11.888 65.4825 12.24V15.504C65.4825 15.856 65.3705 16.144 65.1465 16.368C64.9225 16.592 64.6505 16.704 64.3305 16.704H58.3305V26.208C58.3305 27.424 58.5385 28.384 58.9545 29.088C59.4025 29.76 60.1705 30.096 61.2585 30.096H64.7625C65.0825 30.096 65.3545 30.208 65.5785 30.432C65.8025 30.656 65.9145 30.928 65.9145 31.248V34.8C65.9145 35.152 65.8025 35.44 65.5785 35.664C65.3545 35.888 65.0825 36 64.7625 36H60.5865Z" fill="#46EBBD"/>
<path d="M36.5666 36C36.2466 36 35.9746 35.888 35.7506 35.664C35.5266 35.44 35.4146 35.152 35.4146 34.8V12.24C35.4146 11.888 35.5266 11.6 35.7506 11.376C35.9746 11.152 36.2466 11.04 36.5666 11.04H41.3666C41.7186 11.04 42.0066 11.152 42.2306 11.376C42.4546 11.6 42.5666 11.888 42.5666 12.24V34.8C42.5666 35.152 42.4546 35.44 42.2306 35.664C42.0066 35.888 41.7186 36 41.3666 36H36.5666ZM36.4226 7.19999C36.1026 7.19999 35.8306 7.08799 35.6066 6.86399C35.3826 6.63999 35.2706 6.35199 35.2706 5.99999V2.15999C35.2706 1.80799 35.3826 1.51999 35.6066 1.29599C35.8306 1.03999 36.1026 0.911987 36.4226 0.911987H41.4626C41.8146 0.911987 42.1026 1.03999 42.3266 1.29599C42.5826 1.51999 42.7106 1.80799 42.7106 2.15999V5.99999C42.7106 6.35199 42.5826 6.63999 42.3266 6.86399C42.1026 7.08799 41.8146 7.19999 41.4626 7.19999H36.4226Z" fill="#46EBBD"/>
<path d="M1.752 36C1.4 36 1.112 35.888 0.888002 35.664C0.664002 35.44 0.552002 35.152 0.552002 34.8V3.60003C0.552002 3.24802 0.664002 2.96002 0.888002 2.73603C1.112 2.51202 1.4 2.40002 1.752 2.40002H6.984C7.336 2.40002 7.624 2.51202 7.848 2.73603C8.072 2.96002 8.184 3.24802 8.184 3.60003V15.6H21.192V3.60003C21.192 3.24802 21.304 2.96002 21.528 2.73603C21.752 2.51202 22.04 2.40002 22.392 2.40002H27.624C27.976 2.40002 28.264 2.51202 28.488 2.73603C28.712 2.96002 28.824 3.24802 28.824 3.60003V34.8C28.824 35.152 28.712 35.44 28.488 35.664C28.264 35.888 27.976 36 27.624 36H22.392C22.04 36 21.752 35.888 21.528 35.664C21.304 35.44 21.192 35.152 21.192 34.8V22.416H8.184V34.8C8.184 35.152 8.072 35.44 7.848 35.664C7.624 35.888 7.336 36 6.984 36H1.752Z" fill="#46EBBD"/>
<path d="M118.937 118.91L90.9066 54.7437C89.91 52.4618 87.7384 51 85.3482 51H65.7794L66.2707 55.6441C66.3709 56.5905 65.627 57.4167 64.6745 57.4167H58.8273C57.8748 57.4167 57.1309 56.5905 57.2312 55.6441L57.7224 51H38.1536C35.7614 51 33.5898 52.4618 32.5932 54.7437L4.56237 118.91C2.70755 123.159 5.66724 128 10.1248 128H49.5953L51.6627 108.413C51.8352 106.781 53.2107 105.542 54.853 105.542H68.6488C70.2911 105.542 71.6667 106.781 71.8391 108.413L73.9065 128H113.377C117.835 128 120.794 123.159 118.937 118.91ZM56.2165 65.2691C56.2582 64.8748 56.4443 64.51 56.739 64.2448C57.0338 63.9797 57.4162 63.8331 57.8127 63.8333H65.6911C66.5113 63.8333 67.2011 64.4529 67.2873 65.2691L68.2097 74.0078C68.3601 75.4295 67.2452 76.6667 65.8175 76.6667H57.6884C56.2586 76.6667 55.1458 75.4295 55.2961 74.0078L56.2165 65.2691ZM67.2933 99.125H56.2065C54.3016 99.125 52.8157 97.4747 53.0162 95.5798L54.0329 85.9548C54.2053 84.3226 55.5809 83.0833 57.2232 83.0833H66.2767C67.9189 83.0833 69.2945 84.3226 69.467 85.9548L70.4836 95.5798C70.6841 97.4747 69.1983 99.125 67.2933 99.125Z" fill="#46EBBD"/>
</svg>
